<?xml version="1.0" encoding="UTF-8" standalone="no"?>
<!DOCTYPE svg PUBLIC "-//W3C//DTD SVG 1.1//EN"
 "http://www.w3.org/Graphics/SVG/1.1/DTD/svg11.dtd">
<!-- Generated by graphviz version 2.40.1 (20161225.0304)
 -->
<!-- Title: %3 Pages: 1 -->
<svg width="590pt" height="404pt"
 viewBox="0.00 0.00 590.07 404.00" xmlns="http://www.w3.org/2000/svg" xmlns:xlink="http://www.w3.org/1999/xlink">
<g id="graph0" class="graph" transform="scale(1 1) rotate(0) translate(4 400)">
<title>%3</title>
<polygon fill="#ffffff" stroke="transparent" points="-4,4 -4,-400 586.075,-400 586.075,4 -4,4"/>
<!-- [root] aws_instance.this -->
<g id="node1" class="node">
<title>[root] aws_instance.this</title>
<polygon fill="none" stroke="#000000" points="379.7843,-180 267.7843,-180 267.7843,-144 379.7843,-144 379.7843,-180"/>
<text text-anchor="middle" x="323.7843" y="-158.3" font-family="Times,serif" font-size="14.00" fill="#000000">aws_instance.this</text>
</g>
<!-- [root] data.aws_ami.ubuntu -->
<g id="node2" class="node">
<title>[root] data.aws_ami.ubuntu</title>
<polygon fill="none" stroke="#000000" points="306.2843,-108 173.2843,-108 173.2843,-72 306.2843,-72 306.2843,-108"/>
<text text-anchor="middle" x="239.7843" y="-86.3" font-family="Times,serif" font-size="14.00" fill="#000000">data.aws_ami.ubuntu</text>
</g>
<!-- [root] aws_instance.this&#45;&gt;[root] data.aws_ami.ubuntu -->
<g id="edge1" class="edge">
<title>[root] aws_instance.this&#45;&gt;[root] data.aws_ami.ubuntu</title>
<path fill="none" stroke="#000000" d="M302.5876,-143.8314C292.3409,-135.0485 279.884,-124.3712 268.7746,-114.8489"/>
<polygon fill="#000000" stroke="#000000" points="270.8447,-112.0134 260.9743,-108.1628 266.2891,-117.3282 270.8447,-112.0134"/>
</g>
<!-- [root] provider.aws -->
<g id="node6" class="node">
<title>[root] provider.aws</title>
<polygon fill="none" stroke="#000000" points="239.7843,-36 159.8509,-18 239.7843,0 319.7177,-18 239.7843,-36"/>
<text text-anchor="middle" x="239.7843" y="-14.3" font-family="Times,serif" font-size="14.00" fill="#000000">provider.aws</text>
</g>
<!-- [root] data.aws_ami.ubuntu&#45;&gt;[root] provider.aws -->
<g id="edge2" class="edge">
<title>[root] data.aws_ami.ubuntu&#45;&gt;[root] provider.aws</title>
<path fill="none" stroke="#000000" d="M239.7843,-71.8314C239.7843,-64.131 239.7843,-54.9743 239.7843,-46.4166"/>
<polygon fill="#000000" stroke="#000000" points="243.2844,-46.4132 239.7843,-36.4133 236.2844,-46.4133 243.2844,-46.4132"/>
</g>
<!-- [root] output.image_id -->
<g id="node3" class="node">
<title>[root] output.image_id</title>
<polygon fill="none" stroke="#000000" points="202.7843,-180 102.7843,-180 102.7843,-144 208.7843,-144 208.7843,-174 202.7843,-180"/>
<polyline fill="none" stroke="#000000" points="202.7843,-180 202.7843,-174 "/>
<polyline fill="none" stroke="#000000" points="208.7843,-174 202.7843,-174 "/>
<text text-anchor="middle" x="155.7843" y="-158.3" font-family="Times,serif" font-size="14.00" fill="#000000">output.image_id</text>
</g>
<!-- [root] output.image_id&#45;&gt;[root] data.aws_ami.ubuntu -->
<g id="edge6" class="edge">
<title>[root] output.image_id&#45;&gt;[root] data.aws_ami.ubuntu</title>
<path fill="none" stroke="#000000" d="M176.9811,-143.8314C187.2278,-135.0485 199.6846,-124.3712 210.794,-114.8489"/>
<polygon fill="#000000" stroke="#000000" points="213.2795,-117.3282 218.5943,-108.1628 208.724,-112.0134 213.2795,-117.3282"/>
</g>
<!-- [root] output.private_ip -->
<g id="node4" class="node">
<title>[root] output.private_ip</title>
<polygon fill="none" stroke="#000000" points="267.7843,-252 163.7843,-252 163.7843,-216 273.7843,-216 273.7843,-246 267.7843,-252"/>
<polyline fill="none" stroke="#000000" points="267.7843,-252 267.7843,-246 "/>
<polyline fill="none" stroke="#000000" points="273.7843,-246 267.7843,-246 "/>
<text text-anchor="middle" x="218.7843" y="-230.3" font-family="Times,serif" font-size="14.00" fill="#000000">output.private_ip</text>
</g>
<!-- [root] output.private_ip&#45;&gt;[root] aws_instance.this -->
<g id="edge7" class="edge">
<title>[root] output.private_ip&#45;&gt;[root] aws_instance.this</title>
<path fill="none" stroke="#000000" d="M245.2802,-215.8314C258.4617,-206.7927 274.5691,-195.7476 288.7554,-186.0198"/>
<polygon fill="#000000" stroke="#000000" points="291.0289,-188.7047 297.2969,-180.1628 287.0702,-182.9316 291.0289,-188.7047"/>
</g>
<!-- [root] output.public_ip -->
<g id="node5" class="node">
<title>[root] output.public_ip</title>
<polygon fill="none" stroke="#000000" points="391.7843,-252 291.7843,-252 291.7843,-216 397.7843,-216 397.7843,-246 391.7843,-252"/>
<polyline fill="none" stroke="#000000" points="391.7843,-252 391.7843,-246 "/>
<polyline fill="none" stroke="#000000" points="397.7843,-246 391.7843,-246 "/>
<text text-anchor="middle" x="344.7843" y="-230.3" font-family="Times,serif" font-size="14.00" fill="#000000">output.public_ip</text>
</g>
<!-- [root] output.public_ip&#45;&gt;[root] aws_instance.this -->
<g id="edge8" class="edge">
<title>[root] output.public_ip&#45;&gt;[root] aws_instance.this</title>
<path fill="none" stroke="#000000" d="M339.4851,-215.8314C337.2145,-208.0463 334.5098,-198.7729 331.9903,-190.1347"/>
<polygon fill="#000000" stroke="#000000" points="335.3149,-189.0332 329.1548,-180.4133 328.5949,-190.9933 335.3149,-189.0332"/>
</g>
<!-- [root] meta.count&#45;boundary (EachMode fixup) -->
<g id="node7" class="node">
<title>[root] meta.count&#45;boundary (EachMode fixup)</title>
<ellipse fill="none" stroke="#000000" cx="176.7843" cy="-306" rx="176.5689" ry="18"/>
<text text-anchor="middle" x="176.7843" y="-302.3" font-family="Times,serif" font-size="14.00" fill="#000000">[root] meta.count&#45;boundary (EachMode fixup)</text>
</g>
<!-- [root] meta.count&#45;boundary (EachMode fixup)&#45;&gt;[root] output.image_id -->
<g id="edge3" class="edge">
<title>[root] meta.count&#45;boundary (EachMode fixup)&#45;&gt;[root] output.image_id</title>
<path fill="none" stroke="#000000" d="M167.1935,-287.5602C162.4344,-277.373 157.1974,-264.3186 154.7843,-252 150.7855,-231.5859 151.216,-208.0654 152.5505,-190.1897"/>
<polygon fill="#000000" stroke="#000000" points="156.0459,-190.3952 153.4403,-180.1258 149.0731,-189.7786 156.0459,-190.3952"/>
</g>
<!-- [root] meta.count&#45;boundary (EachMode fixup)&#45;&gt;[root] output.private_ip -->
<g id="edge4" class="edge">
<title>[root] meta.count&#45;boundary (EachMode fixup)&#45;&gt;[root] output.private_ip</title>
<path fill="none" stroke="#000000" d="M187.3827,-287.8314C192.072,-279.7925 197.6872,-270.1666 202.8641,-261.2918"/>
<polygon fill="#000000" stroke="#000000" points="206.0277,-262.8146 208.0432,-252.4133 199.9813,-259.2875 206.0277,-262.8146"/>
</g>
<!-- [root] meta.count&#45;boundary (EachMode fixup)&#45;&gt;[root] output.public_ip -->
<g id="edge5" class="edge">
<title>[root] meta.count&#45;boundary (EachMode fixup)&#45;&gt;[root] output.public_ip</title>
<path fill="none" stroke="#000000" d="M217.8817,-288.3868C240.6074,-278.6472 269.06,-266.4533 293.2612,-256.0813"/>
<polygon fill="#000000" stroke="#000000" points="294.8381,-259.2135 302.6508,-252.0572 292.0806,-252.7794 294.8381,-259.2135"/>
</g>
<!-- [root] provider.aws (close) -->
<g id="node8" class="node">
<title>[root] provider.aws (close)</title>
<ellipse fill="none" stroke="#000000" cx="476.7843" cy="-306" rx="105.0817" ry="18"/>
<text text-anchor="middle" x="476.7843" y="-302.3" font-family="Times,serif" font-size="14.00" fill="#000000">[root] provider.aws (close)</text>
</g>
<!-- [root] provider.aws (close)&#45;&gt;[root] aws_instance.this -->
<g id="edge9" class="edge">
<title>[root] provider.aws (close)&#45;&gt;[root] aws_instance.this</title>
<path fill="none" stroke="#000000" d="M465.4212,-287.9954C452.6914,-268.7256 430.6856,-237.968 406.7843,-216 394.5328,-204.7394 379.6797,-194.274 365.944,-185.6124"/>
<polygon fill="#000000" stroke="#000000" points="367.4705,-182.4425 357.1177,-180.1907 363.8066,-188.4071 367.4705,-182.4425"/>
</g>
<!-- [root] root -->
<g id="node9" class="node">
<title>[root] root</title>
<ellipse fill="none" stroke="#000000" cx="326.7843" cy="-378" rx="47.3916" ry="18"/>
<text text-anchor="middle" x="326.7843" y="-374.3" font-family="Times,serif" font-size="14.00" fill="#000000">[root] root</text>
</g>
<!-- [root] root&#45;&gt;[root] meta.count&#45;boundary (EachMode fixup) -->
<g id="edge10" class="edge">
<title>[root] root&#45;&gt;[root] meta.count&#45;boundary (EachMode fixup)</title>
<path fill="none" stroke="#000000" d="M297.1491,-363.7751C275.8752,-353.5636 246.8009,-339.608 222.5569,-327.9708"/>
<polygon fill="#000000" stroke="#000000" points="224.0578,-324.809 213.5279,-323.6369 221.0286,-331.1196 224.0578,-324.809"/>
</g>
<!-- [root] root&#45;&gt;[root] provider.aws (close) -->
<g id="edge11" class="edge">
<title>[root] root&#45;&gt;[root] provider.aws (close)</title>
<path fill="none" stroke="#000000" d="M356.4195,-363.7751C378.072,-353.3819 407.8049,-339.1101 432.3013,-327.3519"/>
<polygon fill="#000000" stroke="#000000" points="433.9049,-330.4645 441.4056,-322.9818 430.8758,-324.1538 433.9049,-330.4645"/>
</g>
</g>
</svg>
